<svg width="74" height="74" viewBox="0 0 74 74" fill="none" xmlns="http://www.w3.org/2000/svg">
<g filter="url(#filter0_d_425_211)">
<path d="M5.5 13C5.5 7.7533 9.7533 3.5 15 3.5H59C64.2467 3.5 68.5 7.75329 68.5 13V57C68.5 62.2467 64.2467 66.5 59 66.5H15C9.75329 66.5 5.5 62.2467 5.5 57V13Z" stroke="#00BB82" stroke-miterlimit="3.8637" stroke-linecap="round" stroke-linejoin="round" shape-rendering="crispEdges"/>
</g>
<path d="M21 22C20.4477 22 20 22.4477 20 23C20 23.5523 20.4477 24 21 24V22ZM53 24C53.5523 24 54 23.5523 54 23C54 22.4477 53.5523 22 53 22V24ZM21 34C20.4477 34 20 34.4477 20 35C20 35.5523 20.4477 36 21 36V34ZM53 36C53.5523 36 54 35.5523 54 35C54 34.4477 53.5523 34 53 34V36ZM21 46C20.4477 46 20 46.4477 20 47C20 47.5523 20.4477 48 21 48V46ZM53 48C53.5523 48 54 47.5523 54 47C54 46.4477 53.5523 46 53 46V48ZM21 24H53V22H21V24ZM21 36H53V34H21V36ZM21 48H53V46H21V48Z" fill="#3C3C3C"/>
<defs>
<filter id="filter0_d_425_211" x="0" y="0" width="74" height="74" filterUnits="userSpaceOnUse" color-interpolation-filters="sRGB">
<feFlood flood-opacity="0" result="BackgroundImageFix"/>
<feColorMatrix in="SourceAlpha" type="matrix" values="0 0 0 0 0 0 0 0 0 0 0 0 0 0 0 0 0 0 127 0" result="hardAlpha"/>
<feOffset dy="2"/>
<feGaussianBlur stdDeviation="2.5"/>
<feComposite in2="hardAlpha" operator="out"/>
<feColorMatrix type="matrix" values="0 0 0 0 0 0 0 0 0 0 0 0 0 0 0 0 0 0 0.25 0"/>
<feBlend mode="normal" in2="BackgroundImageFix" result="effect1_dropShadow_425_211"/>
<feBlend mode="normal" in="SourceGraphic" in2="effect1_dropShadow_425_211" result="shape"/>
</filter>
</defs>
</svg>
