<svg width="200" height="110" viewBox="0 0 200 110" fill="none" xmlns="http://www.w3.org/2000/svg">
<g clip-path="url(#clip0_210_131)">
<mask id="mask0_210_131" style="mask-type:luminance" maskUnits="userSpaceOnUse" x="0" y="0" width="200" height="110">
<path d="M200 0H0V110H200V0Z" fill="white"/>
</mask>
<g mask="url(#mask0_210_131)">
<g filter="url(#filter0_i_210_131)">
<path d="M112.436 54H108.818V53.298H110.114V42.102H108.818V41.4H117.584V44.172H116.882V42.102H110.852V47.286H116.882V48.006H110.852V53.298H112.436V54ZM124.111 54H120.637V53.298H122.023V47.952H120.637V47.25H122.761V53.298H124.111V54ZM122.995 44.856C122.995 45.024 122.935 45.168 122.815 45.288C122.695 45.396 122.557 45.45 122.401 45.45C122.257 45.45 122.125 45.396 122.005 45.288C121.885 45.168 121.825 45.024 121.825 44.856C121.825 44.688 121.885 44.55 122.005 44.442C122.125 44.322 122.257 44.262 122.401 44.262C122.557 44.262 122.695 44.322 122.815 44.442C122.935 44.55 122.995 44.688 122.995 44.856ZM130.64 54H127.166V53.298H128.57V47.952H127.274V47.25H129.164L129.182 47.898C129.194 48.102 129.206 48.288 129.218 48.456C129.23 48.612 129.242 48.792 129.254 48.996C129.494 48.432 129.878 47.976 130.406 47.628C130.934 47.28 131.534 47.106 132.206 47.106C132.866 47.106 133.388 47.292 133.772 47.664C134.156 48.036 134.36 48.522 134.384 49.122V53.298H135.716V54H132.242V53.298H133.646V49.32C133.622 48.924 133.478 48.588 133.214 48.312C132.962 48.024 132.584 47.868 132.08 47.844C131.708 47.844 131.354 47.904 131.018 48.024C130.682 48.144 130.394 48.312 130.154 48.528C129.89 48.756 129.68 49.02 129.524 49.32C129.38 49.62 129.308 49.95 129.308 50.31V53.298H130.64V54ZM147.198 54H145.2V53.262C145.2 53.118 145.2 52.986 145.2 52.866C145.2 52.734 145.2 52.59 145.2 52.434C145.116 52.65 144.984 52.86 144.804 53.064C144.636 53.256 144.432 53.43 144.192 53.586C143.94 53.754 143.652 53.886 143.328 53.982C143.016 54.078 142.68 54.126 142.32 54.126C141.816 54.126 141.348 54.036 140.916 53.856C140.496 53.676 140.124 53.424 139.8 53.1C139.476 52.776 139.224 52.404 139.044 51.984C138.864 51.564 138.774 51.108 138.774 50.616C138.774 50.148 138.864 49.698 139.044 49.266C139.224 48.834 139.476 48.456 139.8 48.132C140.124 47.82 140.496 47.574 140.916 47.394C141.348 47.202 141.816 47.106 142.32 47.106C143.028 47.106 143.634 47.28 144.138 47.628C144.642 47.964 144.996 48.366 145.2 48.834C145.2 48.582 145.206 48.324 145.218 48.06C145.23 47.784 145.248 47.514 145.272 47.25H145.866V53.298H147.198V54ZM142.32 47.826C141.912 47.826 141.534 47.898 141.186 48.042C140.838 48.186 140.544 48.39 140.304 48.654C140.052 48.906 139.854 49.2 139.71 49.536C139.578 49.872 139.512 50.232 139.512 50.616C139.512 51.024 139.59 51.402 139.746 51.75C139.902 52.098 140.118 52.398 140.394 52.65C140.646 52.89 140.934 53.076 141.258 53.208C141.582 53.34 141.936 53.406 142.32 53.406C142.704 53.406 143.064 53.34 143.4 53.208C143.736 53.064 144.03 52.866 144.282 52.614C144.546 52.362 144.75 52.068 144.894 51.732C145.05 51.384 145.128 51.012 145.128 50.616C145.128 50.22 145.05 49.854 144.894 49.518C144.75 49.17 144.552 48.87 144.3 48.618C144.036 48.366 143.736 48.174 143.4 48.042C143.064 47.898 142.704 47.826 142.32 47.826ZM153.734 54H150.26V53.298H151.664V47.952H150.368V47.25H152.258L152.276 47.898C152.288 48.102 152.3 48.288 152.312 48.456C152.324 48.612 152.336 48.792 152.348 48.996C152.588 48.432 152.972 47.976 153.5 47.628C154.028 47.28 154.628 47.106 155.3 47.106C155.96 47.106 156.482 47.292 156.866 47.664C157.25 48.036 157.454 48.522 157.478 49.122V53.298H158.81V54H155.336V53.298H156.74V49.32C156.716 48.924 156.572 48.588 156.308 48.312C156.056 48.024 155.678 47.868 155.174 47.844C154.802 47.844 154.448 47.904 154.112 48.024C153.776 48.144 153.488 48.312 153.248 48.528C152.984 48.756 152.774 49.02 152.618 49.32C152.474 49.62 152.402 49.95 152.402 50.31V53.298H153.734V54ZM167.628 53.352C167.316 53.592 166.974 53.784 166.602 53.928C166.23 54.06 165.828 54.126 165.396 54.126C164.904 54.126 164.442 54.036 164.01 53.856C163.59 53.676 163.224 53.424 162.912 53.1C162.576 52.788 162.318 52.422 162.138 52.002C161.958 51.57 161.868 51.108 161.868 50.616C161.868 50.136 161.958 49.68 162.138 49.248C162.318 48.816 162.57 48.444 162.894 48.132C163.218 47.82 163.59 47.574 164.01 47.394C164.442 47.202 164.904 47.106 165.396 47.106C165.828 47.106 166.236 47.178 166.62 47.322C167.004 47.454 167.346 47.64 167.646 47.88V49.644H166.962V48.312C166.746 48.156 166.506 48.036 166.242 47.952C165.978 47.868 165.696 47.826 165.396 47.826C165.012 47.826 164.652 47.898 164.316 48.042C163.98 48.174 163.692 48.36 163.452 48.6C163.176 48.864 162.966 49.17 162.822 49.518C162.678 49.854 162.606 50.22 162.606 50.616C162.606 51.012 162.678 51.384 162.822 51.732C162.966 52.068 163.17 52.362 163.434 52.614C163.674 52.854 163.962 53.046 164.298 53.19C164.646 53.334 165.012 53.406 165.396 53.406C165.732 53.406 166.05 53.352 166.35 53.244C166.65 53.136 166.92 52.986 167.16 52.794L167.628 53.352ZM174.174 54H170.7V53.298H172.086V47.952H170.7V47.25H172.824V53.298H174.174V54ZM173.058 44.856C173.058 45.024 172.998 45.168 172.878 45.288C172.758 45.396 172.62 45.45 172.464 45.45C172.32 45.45 172.188 45.396 172.068 45.288C171.948 45.168 171.888 45.024 171.888 44.856C171.888 44.688 171.948 44.55 172.068 44.442C172.188 44.322 172.32 44.262 172.464 44.262C172.62 44.262 172.758 44.322 172.878 44.442C172.998 44.55 173.058 44.688 173.058 44.856ZM185.652 54H183.654V53.262C183.654 53.118 183.654 52.986 183.654 52.866C183.654 52.734 183.654 52.59 183.654 52.434C183.57 52.65 183.438 52.86 183.258 53.064C183.09 53.256 182.886 53.43 182.646 53.586C182.394 53.754 182.106 53.886 181.782 53.982C181.47 54.078 181.134 54.126 180.774 54.126C180.27 54.126 179.802 54.036 179.37 53.856C178.95 53.676 178.578 53.424 178.254 53.1C177.93 52.776 177.678 52.404 177.498 51.984C177.318 51.564 177.228 51.108 177.228 50.616C177.228 50.148 177.318 49.698 177.498 49.266C177.678 48.834 177.93 48.456 178.254 48.132C178.578 47.82 178.95 47.574 179.37 47.394C179.802 47.202 180.27 47.106 180.774 47.106C181.482 47.106 182.088 47.28 182.592 47.628C183.096 47.964 183.45 48.366 183.654 48.834C183.654 48.582 183.66 48.324 183.672 48.06C183.684 47.784 183.702 47.514 183.726 47.25H184.32V53.298H185.652V54ZM180.774 47.826C180.366 47.826 179.988 47.898 179.64 48.042C179.292 48.186 178.998 48.39 178.758 48.654C178.506 48.906 178.308 49.2 178.164 49.536C178.032 49.872 177.966 50.232 177.966 50.616C177.966 51.024 178.044 51.402 178.2 51.75C178.356 52.098 178.572 52.398 178.848 52.65C179.1 52.89 179.388 53.076 179.712 53.208C180.036 53.34 180.39 53.406 180.774 53.406C181.158 53.406 181.518 53.34 181.854 53.208C182.19 53.064 182.484 52.866 182.736 52.614C183 52.362 183.204 52.068 183.348 51.732C183.504 51.384 183.582 51.012 183.582 50.616C183.582 50.22 183.504 49.854 183.348 49.518C183.204 49.17 183.006 48.87 182.754 48.618C182.49 48.366 182.19 48.174 181.854 48.042C181.518 47.898 181.158 47.826 180.774 47.826ZM192.188 54H188.714V53.298H190.046V41.202H188.768V40.5H190.784V53.298H192.188V54ZM119.562 76H115.944V75.298H117.348V64.102H115.944V63.4H119.562V64.102H118.086V69.286H125.826V64.102H124.35V63.4H127.968V64.102H126.564V75.298H127.968V76H124.35V75.298H125.826V70.006H118.086V75.298H119.562V76ZM134.561 69.826C134.105 69.826 133.685 69.922 133.301 70.114C132.929 70.306 132.617 70.564 132.365 70.888C132.125 71.2 131.957 71.554 131.861 71.95C131.765 72.334 131.759 72.73 131.843 73.138C132.659 72.814 133.469 72.496 134.273 72.184C135.089 71.86 135.905 71.536 136.721 71.212C136.505 70.804 136.205 70.474 135.821 70.222C135.449 69.958 135.029 69.826 134.561 69.826ZM136.919 75.19C136.607 75.478 136.253 75.706 135.857 75.874C135.461 76.042 135.029 76.126 134.561 76.126C134.069 76.126 133.607 76.036 133.175 75.856C132.755 75.676 132.383 75.424 132.059 75.1C131.735 74.776 131.483 74.404 131.303 73.984C131.123 73.564 131.033 73.108 131.033 72.616C131.033 72.136 131.123 71.68 131.303 71.248C131.483 70.816 131.735 70.444 132.059 70.132C132.383 69.82 132.755 69.574 133.175 69.394C133.607 69.202 134.069 69.106 134.561 69.106C134.933 69.106 135.287 69.172 135.623 69.304C135.959 69.424 136.259 69.604 136.523 69.844C136.775 70.06 136.997 70.324 137.189 70.636C137.381 70.936 137.537 71.266 137.657 71.626C136.721 71.998 135.785 72.364 134.849 72.724C133.925 73.084 132.995 73.456 132.059 73.84C132.275 74.308 132.605 74.686 133.049 74.974C133.493 75.262 133.997 75.406 134.561 75.406C134.933 75.406 135.281 75.34 135.605 75.208C135.929 75.076 136.217 74.89 136.469 74.65L136.919 75.19ZM144.252 76H140.778V75.298H142.11V63.202H140.832V62.5H142.848V75.298H144.252V76ZM147.451 80.5V79.798H148.657V69.952H147.307V69.25H149.251C149.251 69.526 149.257 69.802 149.269 70.078C149.293 70.342 149.305 70.606 149.305 70.87C149.509 70.402 149.863 69.994 150.367 69.646C150.871 69.298 151.483 69.124 152.203 69.124C152.683 69.124 153.139 69.214 153.571 69.394C154.003 69.574 154.381 69.826 154.705 70.15C155.029 70.474 155.281 70.852 155.461 71.284C155.641 71.704 155.731 72.154 155.731 72.634C155.731 73.114 155.641 73.57 155.461 74.002C155.281 74.434 155.029 74.806 154.705 75.118C154.381 75.43 154.003 75.682 153.571 75.874C153.139 76.054 152.683 76.144 152.203 76.144C151.843 76.144 151.507 76.096 151.195 76C150.883 75.916 150.607 75.79 150.367 75.622C150.115 75.466 149.905 75.298 149.737 75.118C149.581 74.926 149.461 74.722 149.377 74.506C149.377 74.626 149.377 74.746 149.377 74.866C149.389 74.974 149.395 75.082 149.395 75.19V79.798H150.925V80.5H147.451ZM152.203 69.844C151.795 69.844 151.417 69.916 151.069 70.06C150.733 70.204 150.439 70.402 150.187 70.654C149.935 70.906 149.737 71.206 149.593 71.554C149.461 71.89 149.395 72.25 149.395 72.634C149.395 73.03 149.467 73.402 149.611 73.75C149.755 74.086 149.959 74.386 150.223 74.65C150.475 74.89 150.769 75.082 151.105 75.226C151.441 75.358 151.807 75.424 152.203 75.424C152.575 75.424 152.929 75.358 153.265 75.226C153.601 75.082 153.895 74.89 154.147 74.65C154.411 74.398 154.615 74.098 154.759 73.75C154.915 73.402 154.993 73.03 154.993 72.634C154.993 72.226 154.915 71.848 154.759 71.5C154.615 71.152 154.411 70.852 154.147 70.6C153.895 70.372 153.601 70.192 153.265 70.06C152.929 69.916 152.575 69.844 152.203 69.844ZM162.266 76H158.792V75.298H160.196V63.202H158.864V62.5H160.934V70.186L160.88 70.996C161.132 70.42 161.516 69.964 162.032 69.628C162.548 69.292 163.148 69.118 163.832 69.106C164.492 69.106 165.014 69.292 165.398 69.664C165.782 70.036 165.986 70.522 166.01 71.122V75.298H167.342V76H163.868V75.298H165.272V71.32C165.248 70.924 165.104 70.588 164.84 70.312C164.588 70.024 164.21 69.868 163.706 69.844C163.334 69.844 162.98 69.904 162.644 70.024C162.308 70.144 162.02 70.312 161.78 70.528C161.516 70.756 161.306 71.02 161.15 71.32C161.006 71.62 160.934 71.95 160.934 72.31V75.298H162.266V76ZM173.929 69.826C173.473 69.826 173.053 69.922 172.669 70.114C172.297 70.306 171.985 70.564 171.733 70.888C171.493 71.2 171.325 71.554 171.229 71.95C171.133 72.334 171.127 72.73 171.211 73.138C172.027 72.814 172.837 72.496 173.641 72.184C174.457 71.86 175.273 71.536 176.089 71.212C175.873 70.804 175.573 70.474 175.189 70.222C174.817 69.958 174.397 69.826 173.929 69.826ZM176.287 75.19C175.975 75.478 175.621 75.706 175.225 75.874C174.829 76.042 174.397 76.126 173.929 76.126C173.437 76.126 172.975 76.036 172.543 75.856C172.123 75.676 171.751 75.424 171.427 75.1C171.103 74.776 170.851 74.404 170.671 73.984C170.491 73.564 170.401 73.108 170.401 72.616C170.401 72.136 170.491 71.68 170.671 71.248C170.851 70.816 171.103 70.444 171.427 70.132C171.751 69.82 172.123 69.574 172.543 69.394C172.975 69.202 173.437 69.106 173.929 69.106C174.301 69.106 174.655 69.172 174.991 69.304C175.327 69.424 175.627 69.604 175.891 69.844C176.143 70.06 176.365 70.324 176.557 70.636C176.749 70.936 176.905 71.266 177.025 71.626C176.089 71.998 175.153 72.364 174.217 72.724C173.293 73.084 172.363 73.456 171.427 73.84C171.643 74.308 171.973 74.686 172.417 74.974C172.861 75.262 173.365 75.406 173.929 75.406C174.301 75.406 174.649 75.34 174.973 75.208C175.297 75.076 175.585 74.89 175.837 74.65L176.287 75.19ZM183.62 76H180.146V75.298H181.55V69.952H180.254V69.25H182.144L182.198 70.204C182.21 70.408 182.216 70.54 182.216 70.6C182.216 70.66 182.222 70.792 182.234 70.996C182.366 70.696 182.534 70.432 182.738 70.204C182.954 69.964 183.194 69.766 183.458 69.61C183.71 69.454 183.968 69.334 184.232 69.25C184.508 69.166 184.784 69.118 185.06 69.106L185.024 69.844C184.664 69.844 184.322 69.904 183.998 70.024C183.686 70.132 183.41 70.288 183.17 70.492C182.894 70.696 182.678 70.96 182.522 71.284C182.366 71.596 182.288 71.938 182.288 72.31V75.298H183.62V76Z" fill="#008481"/>
</g>
<g filter="url(#filter1_i_210_131)">
<path d="M100 57C100 83.5097 78.5097 105 52 105C25.4903 105 4 83.5097 4 57C4 30.4903 25.4903 9 52 9C78.5097 9 100 30.4903 100 57Z" fill="#D8FFFE" fill-opacity="0.9"/>
</g>
<path d="M98.5 57C98.5 82.6812 77.6812 103.5 52 103.5C26.3188 103.5 5.5 82.6812 5.5 57C5.5 31.3188 26.3188 10.5 52 10.5C77.6812 10.5 98.5 31.3188 98.5 57Z" stroke="#006D6B" stroke-width="3"/>
<g filter="url(#filter2_d_210_131)">
<path d="M24.6314 18.9738L22.8232 26.7259L16.6831 19.4084L24.6314 18.9738Z" fill="#006D6B"/>
</g>
<g filter="url(#filter3_d_210_131)">
<path d="M79.1338 96.052L81.077 87.2222L88.1669 95.6716L79.1338 96.052Z" fill="#006D6B"/>
</g>
<g filter="url(#filter4_i_210_131)">
<path d="M54.1638 72.56H57.5238C58.0038 72.56 58.2438 72.32 58.2438 71.84V42.56C58.2438 42.08 58.0038 41.84 57.5238 41.84H54.1638C53.6838 41.84 53.4438 41.6 53.4438 41.12C53.4438 40.64 53.6838 40.4 54.1638 40.4H76.9638C77.4438 40.4 77.6838 40.64 77.6838 41.12V47.84C77.6838 48.32 77.4438 48.56 76.9638 48.56C76.4838 48.56 76.2438 48.32 76.2438 47.84V42.56C76.2438 42.08 76.0038 41.84 75.5238 41.84H60.4038C59.9238 41.84 59.6838 42.08 59.6838 42.56V55.52C59.6838 56 59.9238 56.24 60.4038 56.24H71.6838C72.1638 56.24 72.4038 56 72.4038 55.52V53.12C72.4038 52.64 72.6438 52.4 73.1238 52.4C73.6038 52.4 73.8438 52.64 73.8438 53.12V60.8C73.8438 61.28 73.6038 61.52 73.1238 61.52C72.6438 61.52 72.4038 61.28 72.4038 60.8V58.4C72.4038 57.92 72.1638 57.68 71.6838 57.68H60.4038C59.9238 57.68 59.6838 57.92 59.6838 58.4V71.84C59.6838 72.32 59.9238 72.56 60.4038 72.56H64.2438C64.7238 72.56 64.9638 72.8 64.9638 73.28C64.9638 73.76 64.7238 74 64.2438 74H54.1638C53.6838 74 53.4438 73.76 53.4438 73.28C53.4438 72.8 53.6838 72.56 54.1638 72.56Z" fill="#008481"/>
</g>
<g filter="url(#filter5_i_210_131)">
<path d="M49.5674 41.84H46.2074C45.7274 41.84 45.4874 42.08 45.4874 42.56V71.84C45.4874 72.32 45.7274 72.56 46.2074 72.56H49.5674C50.0474 72.56 50.2874 72.8 50.2874 73.28C50.2874 73.76 50.0474 74 49.5674 74H26.7674C26.2874 74 26.0474 73.76 26.0474 73.28V66.56C26.0474 66.08 26.2874 65.84 26.7674 65.84C27.2474 65.84 27.4874 66.08 27.4874 66.56V71.84C27.4874 72.32 27.7274 72.56 28.2074 72.56H43.3274C43.8074 72.56 44.0474 72.32 44.0474 71.84V58.88C44.0474 58.4 43.8074 58.16 43.3274 58.16H32.0474C31.5674 58.16 31.3274 58.4 31.3274 58.88V61.28C31.3274 61.76 31.0874 62 30.6074 62C30.1274 62 29.8874 61.76 29.8874 61.28V53.6C29.8874 53.12 30.1274 52.88 30.6074 52.88C31.0874 52.88 31.3274 53.12 31.3274 53.6V56C31.3274 56.48 31.5674 56.72 32.0474 56.72H43.3274C43.8074 56.72 44.0474 56.48 44.0474 56V42.56C44.0474 42.08 43.8074 41.84 43.3274 41.84H39.4874C39.0074 41.84 38.7674 41.6 38.7674 41.12C38.7674 40.64 39.0074 40.4 39.4874 40.4H49.5674C50.0474 40.4 50.2874 40.64 50.2874 41.12C50.2874 41.6 50.0474 41.84 49.5674 41.84Z" fill="#008481"/>
</g>
</g>
</g>
<defs>
<filter id="filter0_i_210_131" x="108.818" y="40.5" width="83.3701" height="44" filterUnits="userSpaceOnUse" color-interpolation-filters="sRGB">
<feFlood flood-opacity="0" result="BackgroundImageFix"/>
<feBlend mode="normal" in="SourceGraphic" in2="BackgroundImageFix" result="shape"/>
<feColorMatrix in="SourceAlpha" type="matrix" values="0 0 0 0 0 0 0 0 0 0 0 0 0 0 0 0 0 0 127 0" result="hardAlpha"/>
<feOffset dy="4"/>
<feGaussianBlur stdDeviation="2"/>
<feComposite in2="hardAlpha" operator="arithmetic" k2="-1" k3="1"/>
<feColorMatrix type="matrix" values="0 0 0 0 0 0 0 0 0 0 0 0 0 0 0 0 0 0 0.25 0"/>
<feBlend mode="normal" in2="shape" result="effect1_innerShadow_210_131"/>
</filter>
<filter id="filter1_i_210_131" x="4" y="9" width="96" height="100" filterUnits="userSpaceOnUse" color-interpolation-filters="sRGB">
<feFlood flood-opacity="0" result="BackgroundImageFix"/>
<feBlend mode="normal" in="SourceGraphic" in2="BackgroundImageFix" result="shape"/>
<feColorMatrix in="SourceAlpha" type="matrix" values="0 0 0 0 0 0 0 0 0 0 0 0 0 0 0 0 0 0 127 0" result="hardAlpha"/>
<feOffset dy="4"/>
<feGaussianBlur stdDeviation="2"/>
<feComposite in2="hardAlpha" operator="arithmetic" k2="-1" k3="1"/>
<feColorMatrix type="matrix" values="0 0 0 0 0 0 0 0 0 0 0 0 0 0 0 0 0 0 0.25 0"/>
<feBlend mode="normal" in2="shape" result="effect1_innerShadow_210_131"/>
</filter>
<filter id="filter2_d_210_131" x="12.6831" y="18.9738" width="15.9482" height="15.7521" filterUnits="userSpaceOnUse" color-interpolation-filters="sRGB">
<feFlood flood-opacity="0" result="BackgroundImageFix"/>
<feColorMatrix in="SourceAlpha" type="matrix" values="0 0 0 0 0 0 0 0 0 0 0 0 0 0 0 0 0 0 127 0" result="hardAlpha"/>
<feOffset dy="4"/>
<feGaussianBlur stdDeviation="2"/>
<feComposite in2="hardAlpha" operator="out"/>
<feColorMatrix type="matrix" values="0 0 0 0 0 0 0 0 0 0 0 0 0 0 0 0 0 0 0.25 0"/>
<feBlend mode="normal" in2="BackgroundImageFix" result="effect1_dropShadow_210_131"/>
<feBlend mode="normal" in="SourceGraphic" in2="effect1_dropShadow_210_131" result="shape"/>
</filter>
<filter id="filter3_d_210_131" x="75.1338" y="87.2222" width="17.0332" height="16.8298" filterUnits="userSpaceOnUse" color-interpolation-filters="sRGB">
<feFlood flood-opacity="0" result="BackgroundImageFix"/>
<feColorMatrix in="SourceAlpha" type="matrix" values="0 0 0 0 0 0 0 0 0 0 0 0 0 0 0 0 0 0 127 0" result="hardAlpha"/>
<feOffset dy="4"/>
<feGaussianBlur stdDeviation="2"/>
<feComposite in2="hardAlpha" operator="out"/>
<feColorMatrix type="matrix" values="0 0 0 0 0 0 0 0 0 0 0 0 0 0 0 0 0 0 0.25 0"/>
<feBlend mode="normal" in2="BackgroundImageFix" result="effect1_dropShadow_210_131"/>
<feBlend mode="normal" in="SourceGraphic" in2="effect1_dropShadow_210_131" result="shape"/>
</filter>
<filter id="filter4_i_210_131" x="53.4438" y="40.4" width="24.24" height="37.6" filterUnits="userSpaceOnUse" color-interpolation-filters="sRGB">
<feFlood flood-opacity="0" result="BackgroundImageFix"/>
<feBlend mode="normal" in="SourceGraphic" in2="BackgroundImageFix" result="shape"/>
<feColorMatrix in="SourceAlpha" type="matrix" values="0 0 0 0 0 0 0 0 0 0 0 0 0 0 0 0 0 0 127 0" result="hardAlpha"/>
<feOffset dy="4"/>
<feGaussianBlur stdDeviation="2"/>
<feComposite in2="hardAlpha" operator="arithmetic" k2="-1" k3="1"/>
<feColorMatrix type="matrix" values="0 0 0 0 0 0 0 0 0 0 0 0 0 0 0 0 0 0 0.25 0"/>
<feBlend mode="normal" in2="shape" result="effect1_innerShadow_210_131"/>
</filter>
<filter id="filter5_i_210_131" x="26.0474" y="40.4" width="24.24" height="37.6" filterUnits="userSpaceOnUse" color-interpolation-filters="sRGB">
<feFlood flood-opacity="0" result="BackgroundImageFix"/>
<feBlend mode="normal" in="SourceGraphic" in2="BackgroundImageFix" result="shape"/>
<feColorMatrix in="SourceAlpha" type="matrix" values="0 0 0 0 0 0 0 0 0 0 0 0 0 0 0 0 0 0 127 0" result="hardAlpha"/>
<feOffset dy="4"/>
<feGaussianBlur stdDeviation="2"/>
<feComposite in2="hardAlpha" operator="arithmetic" k2="-1" k3="1"/>
<feColorMatrix type="matrix" values="0 0 0 0 0 0 0 0 0 0 0 0 0 0 0 0 0 0 0.25 0"/>
<feBlend mode="normal" in2="shape" result="effect1_innerShadow_210_131"/>
</filter>
<clipPath id="clip0_210_131">
<rect width="200" height="110" fill="white"/>
</clipPath>
</defs>
</svg>
