<svg width="150" height="83" viewBox="0 0 150 83" fill="none" xmlns="http://www.w3.org/2000/svg">
<g clip-path="url(#clip0_433_212)">
<mask id="mask0_433_212" style="mask-type:luminance" maskUnits="userSpaceOnUse" x="0" y="0" width="150" height="83">
<path d="M150 0H0V82.5H150V0Z" fill="white"/>
</mask>
<g mask="url(#mask0_433_212)">
<g filter="url(#filter0_i_433_212)">
<path d="M84.327 40.5H81.6135V39.9735H82.5855V31.5765H81.6135V31.05H88.188V33.129H87.6615V31.5765H83.139V35.4645H87.6615V36.0045H83.139V39.9735H84.327V40.5ZM93.0832 40.5H90.4777V39.9735H91.5172V35.964H90.4777V35.4375H92.0707V39.9735H93.0832V40.5ZM92.2462 33.642C92.2462 33.768 92.2012 33.876 92.1112 33.966C92.0212 34.047 91.9177 34.0875 91.8007 34.0875C91.6927 34.0875 91.5937 34.047 91.5037 33.966C91.4137 33.876 91.3687 33.768 91.3687 33.642C91.3687 33.516 91.4137 33.4125 91.5037 33.3315C91.5937 33.2415 91.6927 33.1965 91.8007 33.1965C91.9177 33.1965 92.0212 33.2415 92.1112 33.3315C92.2012 33.4125 92.2462 33.516 92.2462 33.642ZM97.98 40.5H95.3745V39.9735H96.4275V35.964H95.4555V35.4375H96.873L96.8865 35.9235C96.8955 36.0765 96.9045 36.216 96.9135 36.342C96.9225 36.459 96.9315 36.594 96.9405 36.747C97.1205 36.324 97.4085 35.982 97.8045 35.721C98.2005 35.46 98.6505 35.3295 99.1545 35.3295C99.6495 35.3295 100.041 35.469 100.329 35.748C100.617 36.027 100.77 36.3915 100.788 36.8415V39.9735H101.787V40.5H99.1815V39.9735H100.234V36.99C100.216 36.693 100.108 36.441 99.9105 36.234C99.7215 36.018 99.438 35.901 99.06 35.883C98.781 35.883 98.5155 35.928 98.2635 36.018C98.0115 36.108 97.7955 36.234 97.6155 36.396C97.4175 36.567 97.26 36.765 97.143 36.99C97.035 37.215 96.981 37.4625 96.981 37.7325V39.9735H97.98V40.5ZM110.398 40.5H108.9V39.9465C108.9 39.8385 108.9 39.7395 108.9 39.6495C108.9 39.5505 108.9 39.4425 108.9 39.3255C108.837 39.4875 108.738 39.645 108.603 39.798C108.477 39.942 108.324 40.0725 108.144 40.1895C107.955 40.3155 107.739 40.4145 107.496 40.4865C107.262 40.5585 107.01 40.5945 106.74 40.5945C106.362 40.5945 106.011 40.527 105.687 40.392C105.372 40.257 105.093 40.068 104.85 39.825C104.607 39.582 104.418 39.303 104.283 38.988C104.148 38.673 104.08 38.331 104.08 37.962C104.08 37.611 104.148 37.2735 104.283 36.9495C104.418 36.6255 104.607 36.342 104.85 36.099C105.093 35.865 105.372 35.6805 105.687 35.5455C106.011 35.4015 106.362 35.3295 106.74 35.3295C107.271 35.3295 107.725 35.46 108.103 35.721C108.481 35.973 108.747 36.2745 108.9 36.6255C108.9 36.4365 108.904 36.243 108.913 36.045C108.922 35.838 108.936 35.6355 108.954 35.4375H109.399V39.9735H110.398V40.5ZM106.74 35.8695C106.434 35.8695 106.15 35.9235 105.889 36.0315C105.628 36.1395 105.408 36.2925 105.228 36.4905C105.039 36.6795 104.89 36.9 104.782 37.152C104.683 37.404 104.634 37.674 104.634 37.962C104.634 38.268 104.692 38.5515 104.809 38.8125C104.926 39.0735 105.088 39.2985 105.295 39.4875C105.484 39.6675 105.7 39.807 105.943 39.906C106.186 40.005 106.452 40.0545 106.74 40.0545C107.028 40.0545 107.298 40.005 107.55 39.906C107.802 39.798 108.022 39.6495 108.211 39.4605C108.409 39.2715 108.562 39.051 108.67 38.799C108.787 38.538 108.846 38.259 108.846 37.962C108.846 37.665 108.787 37.3905 108.67 37.1385C108.562 36.8775 108.414 36.6525 108.225 36.4635C108.027 36.2745 107.802 36.1305 107.55 36.0315C107.298 35.9235 107.028 35.8695 106.74 35.8695ZM115.3 40.5H112.695V39.9735H113.748V35.964H112.776V35.4375H114.193L114.207 35.9235C114.216 36.0765 114.225 36.216 114.234 36.342C114.243 36.459 114.252 36.594 114.261 36.747C114.441 36.324 114.729 35.982 115.125 35.721C115.521 35.46 115.971 35.3295 116.475 35.3295C116.97 35.3295 117.361 35.469 117.649 35.748C117.937 36.027 118.09 36.3915 118.108 36.8415V39.9735H119.107V40.5H116.502V39.9735H117.555V36.99C117.537 36.693 117.429 36.441 117.231 36.234C117.042 36.018 116.758 35.901 116.38 35.883C116.101 35.883 115.836 35.928 115.584 36.018C115.332 36.108 115.116 36.234 114.936 36.396C114.738 36.567 114.58 36.765 114.463 36.99C114.355 37.215 114.301 37.4625 114.301 37.7325V39.9735H115.3V40.5ZM125.721 40.014C125.487 40.194 125.23 40.338 124.951 40.446C124.672 40.545 124.371 40.5945 124.047 40.5945C123.678 40.5945 123.331 40.527 123.007 40.392C122.692 40.257 122.418 40.068 122.184 39.825C121.932 39.591 121.738 39.3165 121.603 39.0015C121.468 38.6775 121.401 38.331 121.401 37.962C121.401 37.602 121.468 37.26 121.603 36.936C121.738 36.612 121.927 36.333 122.17 36.099C122.413 35.865 122.692 35.6805 123.007 35.5455C123.331 35.4015 123.678 35.3295 124.047 35.3295C124.371 35.3295 124.677 35.3835 124.965 35.4915C125.253 35.5905 125.509 35.73 125.734 35.91V37.233H125.221V36.234C125.059 36.117 124.879 36.027 124.681 35.964C124.483 35.901 124.272 35.8695 124.047 35.8695C123.759 35.8695 123.489 35.9235 123.237 36.0315C122.985 36.1305 122.769 36.27 122.589 36.45C122.382 36.648 122.224 36.8775 122.116 37.1385C122.008 37.3905 121.954 37.665 121.954 37.962C121.954 38.259 122.008 38.538 122.116 38.799C122.224 39.051 122.377 39.2715 122.575 39.4605C122.755 39.6405 122.971 39.7845 123.223 39.8925C123.484 40.0005 123.759 40.0545 124.047 40.0545C124.299 40.0545 124.537 40.014 124.762 39.933C124.987 39.852 125.19 39.7395 125.37 39.5955L125.721 40.014ZM130.63 40.5H128.025V39.9735H129.064V35.964H128.025V35.4375H129.618V39.9735H130.63V40.5ZM129.793 33.642C129.793 33.768 129.748 33.876 129.658 33.966C129.568 34.047 129.465 34.0875 129.348 34.0875C129.24 34.0875 129.141 34.047 129.051 33.966C128.961 33.876 128.916 33.768 128.916 33.642C128.916 33.516 128.961 33.4125 129.051 33.3315C129.141 33.2415 129.24 33.1965 129.348 33.1965C129.465 33.1965 129.568 33.2415 129.658 33.3315C129.748 33.4125 129.793 33.516 129.793 33.642ZM139.239 40.5H137.74V39.9465C137.74 39.8385 137.74 39.7395 137.74 39.6495C137.74 39.5505 137.74 39.4425 137.74 39.3255C137.677 39.4875 137.578 39.645 137.443 39.798C137.317 39.942 137.164 40.0725 136.984 40.1895C136.795 40.3155 136.579 40.4145 136.336 40.4865C136.102 40.5585 135.85 40.5945 135.58 40.5945C135.202 40.5945 134.851 40.527 134.527 40.392C134.212 40.257 133.933 40.068 133.69 39.825C133.447 39.582 133.258 39.303 133.123 38.988C132.988 38.673 132.921 38.331 132.921 37.962C132.921 37.611 132.988 37.2735 133.123 36.9495C133.258 36.6255 133.447 36.342 133.69 36.099C133.933 35.865 134.212 35.6805 134.527 35.5455C134.851 35.4015 135.202 35.3295 135.58 35.3295C136.111 35.3295 136.566 35.46 136.944 35.721C137.322 35.973 137.587 36.2745 137.74 36.6255C137.74 36.4365 137.745 36.243 137.754 36.045C137.763 35.838 137.776 35.6355 137.794 35.4375H138.24V39.9735H139.239V40.5ZM135.58 35.8695C135.274 35.8695 134.991 35.9235 134.73 36.0315C134.469 36.1395 134.248 36.2925 134.068 36.4905C133.879 36.6795 133.731 36.9 133.623 37.152C133.524 37.404 133.474 37.674 133.474 37.962C133.474 38.268 133.533 38.5515 133.65 38.8125C133.767 39.0735 133.929 39.2985 134.136 39.4875C134.325 39.6675 134.541 39.807 134.784 39.906C135.027 40.005 135.292 40.0545 135.58 40.0545C135.868 40.0545 136.138 40.005 136.39 39.906C136.642 39.798 136.863 39.6495 137.052 39.4605C137.25 39.2715 137.403 39.051 137.511 38.799C137.628 38.538 137.686 38.259 137.686 37.962C137.686 37.665 137.628 37.3905 137.511 37.1385C137.403 36.8775 137.254 36.6525 137.065 36.4635C136.867 36.2745 136.642 36.1305 136.39 36.0315C136.138 35.9235 135.868 35.8695 135.58 35.8695ZM144.141 40.5H141.535V39.9735H142.534V30.9015H141.576V30.375H143.088V39.9735H144.141V40.5ZM89.6715 57H86.958V56.4735H88.011V48.0765H86.958V47.55H89.6715V48.0765H88.5645V51.9645H94.3695V48.0765H93.2625V47.55H95.976V48.0765H94.923V56.4735H95.976V57H93.2625V56.4735H94.3695V52.5045H88.5645V56.4735H89.6715V57ZM100.921 52.3695C100.579 52.3695 100.264 52.4415 99.9757 52.5855C99.6967 52.7295 99.4627 52.923 99.2737 53.166C99.0937 53.4 98.9677 53.6655 98.8957 53.9625C98.8237 54.2505 98.8192 54.5475 98.8822 54.8535C99.4942 54.6105 100.102 54.372 100.705 54.138C101.317 53.895 101.929 53.652 102.541 53.409C102.379 53.103 102.154 52.8555 101.866 52.6665C101.587 52.4685 101.272 52.3695 100.921 52.3695ZM102.689 56.3925C102.455 56.6085 102.19 56.7795 101.893 56.9055C101.596 57.0315 101.272 57.0945 100.921 57.0945C100.552 57.0945 100.205 57.027 99.8812 56.892C99.5662 56.757 99.2872 56.568 99.0442 56.325C98.8012 56.082 98.6122 55.803 98.4772 55.488C98.3422 55.173 98.2747 54.831 98.2747 54.462C98.2747 54.102 98.3422 53.76 98.4772 53.436C98.6122 53.112 98.8012 52.833 99.0442 52.599C99.2872 52.365 99.5662 52.1805 99.8812 52.0455C100.205 51.9015 100.552 51.8295 100.921 51.8295C101.2 51.8295 101.465 51.879 101.717 51.978C101.969 52.068 102.194 52.203 102.392 52.383C102.581 52.545 102.748 52.743 102.892 52.977C103.036 53.202 103.153 53.4495 103.243 53.7195C102.541 53.9985 101.839 54.273 101.137 54.543C100.444 54.813 99.7462 55.092 99.0442 55.38C99.2062 55.731 99.4537 56.0145 99.7867 56.2305C100.12 56.4465 100.498 56.5545 100.921 56.5545C101.2 56.5545 101.461 56.505 101.704 56.406C101.947 56.307 102.163 56.1675 102.352 55.9875L102.689 56.3925ZM108.189 57H105.583V56.4735H106.582V47.4015H105.624V46.875H107.136V56.4735H108.189V57ZM110.588 60.375V59.8485H111.493V52.464H110.48V51.9375H111.938C111.938 52.1445 111.943 52.3515 111.952 52.5585C111.97 52.7565 111.979 52.9545 111.979 53.1525C112.132 52.8015 112.397 52.4955 112.775 52.2345C113.153 51.9735 113.612 51.843 114.152 51.843C114.512 51.843 114.854 51.9105 115.178 52.0455C115.502 52.1805 115.786 52.3695 116.029 52.6125C116.272 52.8555 116.461 53.139 116.596 53.463C116.731 53.778 116.798 54.1155 116.798 54.4755C116.798 54.8355 116.731 55.1775 116.596 55.5015C116.461 55.8255 116.272 56.1045 116.029 56.3385C115.786 56.5725 115.502 56.7615 115.178 56.9055C114.854 57.0405 114.512 57.108 114.152 57.108C113.882 57.108 113.63 57.072 113.396 57C113.162 56.937 112.955 56.8425 112.775 56.7165C112.586 56.5995 112.429 56.4735 112.303 56.3385C112.186 56.1945 112.096 56.0415 112.033 55.8795C112.033 55.9695 112.033 56.0595 112.033 56.1495C112.042 56.2305 112.046 56.3115 112.046 56.3925V59.8485H113.194V60.375H110.588ZM114.152 52.383C113.846 52.383 113.563 52.437 113.302 52.545C113.05 52.653 112.829 52.8015 112.64 52.9905C112.451 53.1795 112.303 53.4045 112.195 53.6655C112.096 53.9175 112.046 54.1875 112.046 54.4755C112.046 54.7725 112.1 55.0515 112.208 55.3125C112.316 55.5645 112.469 55.7895 112.667 55.9875C112.856 56.1675 113.077 56.3115 113.329 56.4195C113.581 56.5185 113.855 56.568 114.152 56.568C114.431 56.568 114.697 56.5185 114.949 56.4195C115.201 56.3115 115.421 56.1675 115.61 55.9875C115.808 55.7985 115.961 55.5735 116.069 55.3125C116.186 55.0515 116.245 54.7725 116.245 54.4755C116.245 54.1695 116.186 53.886 116.069 53.625C115.961 53.364 115.808 53.139 115.61 52.95C115.421 52.779 115.201 52.644 114.949 52.545C114.697 52.437 114.431 52.383 114.152 52.383ZM121.699 57H119.094V56.4735H120.147V47.4015H119.148V46.875H120.7V52.6395L120.66 53.247C120.849 52.815 121.137 52.473 121.524 52.221C121.911 51.969 122.361 51.8385 122.874 51.8295C123.369 51.8295 123.76 51.969 124.048 52.248C124.336 52.527 124.489 52.8915 124.507 53.3415V56.4735H125.506V57H122.901V56.4735H123.954V53.49C123.936 53.193 123.828 52.941 123.63 52.734C123.441 52.518 123.157 52.401 122.779 52.383C122.5 52.383 122.235 52.428 121.983 52.518C121.731 52.608 121.515 52.734 121.335 52.896C121.137 53.067 120.979 53.265 120.862 53.49C120.754 53.715 120.7 53.9625 120.7 54.2325V56.4735H121.699V57ZM130.447 52.3695C130.105 52.3695 129.79 52.4415 129.502 52.5855C129.223 52.7295 128.989 52.923 128.8 53.166C128.62 53.4 128.494 53.6655 128.422 53.9625C128.35 54.2505 128.345 54.5475 128.408 54.8535C129.02 54.6105 129.628 54.372 130.231 54.138C130.843 53.895 131.455 53.652 132.067 53.409C131.905 53.103 131.68 52.8555 131.392 52.6665C131.113 52.4685 130.798 52.3695 130.447 52.3695ZM132.215 56.3925C131.981 56.6085 131.716 56.7795 131.419 56.9055C131.122 57.0315 130.798 57.0945 130.447 57.0945C130.078 57.0945 129.731 57.027 129.407 56.892C129.092 56.757 128.813 56.568 128.57 56.325C128.327 56.082 128.138 55.803 128.003 55.488C127.868 55.173 127.801 54.831 127.801 54.462C127.801 54.102 127.868 53.76 128.003 53.436C128.138 53.112 128.327 52.833 128.57 52.599C128.813 52.365 129.092 52.1805 129.407 52.0455C129.731 51.9015 130.078 51.8295 130.447 51.8295C130.726 51.8295 130.991 51.879 131.243 51.978C131.495 52.068 131.72 52.203 131.918 52.383C132.107 52.545 132.274 52.743 132.418 52.977C132.562 53.202 132.679 53.4495 132.769 53.7195C132.067 53.9985 131.365 54.273 130.663 54.543C129.97 54.813 129.272 55.092 128.57 55.38C128.732 55.731 128.98 56.0145 129.313 56.2305C129.646 56.4465 130.024 56.5545 130.447 56.5545C130.726 56.5545 130.987 56.505 131.23 56.406C131.473 56.307 131.689 56.1675 131.878 55.9875L132.215 56.3925ZM137.715 57H135.109V56.4735H136.162V52.464H135.19V51.9375H136.608L136.648 52.653C136.657 52.806 136.662 52.905 136.662 52.95C136.662 52.995 136.666 53.094 136.675 53.247C136.774 53.022 136.9 52.824 137.053 52.653C137.215 52.473 137.395 52.3245 137.593 52.2075C137.782 52.0905 137.976 52.0005 138.174 51.9375C138.381 51.8745 138.588 51.8385 138.795 51.8295L138.768 52.383C138.498 52.383 138.241 52.428 137.998 52.518C137.764 52.599 137.557 52.716 137.377 52.869C137.17 53.022 137.008 53.22 136.891 53.463C136.774 53.697 136.716 53.9535 136.716 54.2325V56.4735H137.715V57Z" fill="#008481"/>
</g>
<g filter="url(#filter1_i_433_212)">
<path d="M75 42.75C75 62.6323 58.8823 78.75 39 78.75C19.1177 78.75 3 62.6323 3 42.75C3 22.8677 19.1177 6.75 39 6.75C58.8823 6.75 75 22.8677 75 42.75Z" fill="#D8FFFE" fill-opacity="0.9"/>
</g>
<path d="M73.875 42.75C73.875 62.0109 58.2609 77.625 39 77.625C19.7391 77.625 4.125 62.0109 4.125 42.75C4.125 23.4891 19.7391 7.875 39 7.875C58.2609 7.875 73.875 23.4891 73.875 42.75Z" stroke="#006D6B" stroke-width="3"/>
<g filter="url(#filter2_d_433_212)">
<path d="M18.4736 14.2303L17.1174 20.0444L12.5123 14.5563L18.4736 14.2303Z" fill="#006D6B"/>
</g>
<g filter="url(#filter3_d_433_212)">
<path d="M59.3503 72.039L60.8077 65.4167L66.1251 71.7537L59.3503 72.039Z" fill="#006D6B"/>
</g>
<g filter="url(#filter4_i_433_212)">
<path d="M40.6229 54.42H43.1429C43.5029 54.42 43.6829 54.24 43.6829 53.88V31.92C43.6829 31.56 43.5029 31.38 43.1429 31.38H40.6229C40.2629 31.38 40.0829 31.2 40.0829 30.84C40.0829 30.48 40.2629 30.3 40.6229 30.3H57.7229C58.0829 30.3 58.2629 30.48 58.2629 30.84V35.88C58.2629 36.24 58.0829 36.42 57.7229 36.42C57.3629 36.42 57.1829 36.24 57.1829 35.88V31.92C57.1829 31.56 57.0029 31.38 56.6429 31.38H45.3029C44.9429 31.38 44.7629 31.56 44.7629 31.92V41.64C44.7629 42 44.9429 42.18 45.3029 42.18H53.7629C54.1229 42.18 54.3029 42 54.3029 41.64V39.84C54.3029 39.48 54.4829 39.3 54.8429 39.3C55.2029 39.3 55.3829 39.48 55.3829 39.84V45.6C55.3829 45.96 55.2029 46.14 54.8429 46.14C54.4829 46.14 54.3029 45.96 54.3029 45.6V43.8C54.3029 43.44 54.1229 43.26 53.7629 43.26H45.3029C44.9429 43.26 44.7629 43.44 44.7629 43.8V53.88C44.7629 54.24 44.9429 54.42 45.3029 54.42H48.1829C48.5429 54.42 48.7229 54.6 48.7229 54.96C48.7229 55.32 48.5429 55.5 48.1829 55.5H40.6229C40.2629 55.5 40.0829 55.32 40.0829 54.96C40.0829 54.6 40.2629 54.42 40.6229 54.42Z" fill="#008481"/>
</g>
<g filter="url(#filter5_i_433_212)">
<path d="M37.1755 31.38H34.6555C34.2955 31.38 34.1155 31.56 34.1155 31.92V53.88C34.1155 54.24 34.2955 54.42 34.6555 54.42H37.1755C37.5355 54.42 37.7155 54.6 37.7155 54.96C37.7155 55.32 37.5355 55.5 37.1755 55.5H20.0755C19.7155 55.5 19.5355 55.32 19.5355 54.96V49.92C19.5355 49.56 19.7155 49.38 20.0755 49.38C20.4355 49.38 20.6155 49.56 20.6155 49.92V53.88C20.6155 54.24 20.7955 54.42 21.1555 54.42H32.4955C32.8555 54.42 33.0355 54.24 33.0355 53.88V44.16C33.0355 43.8 32.8555 43.62 32.4955 43.62H24.0355C23.6755 43.62 23.4955 43.8 23.4955 44.16V45.96C23.4955 46.32 23.3155 46.5 22.9555 46.5C22.5955 46.5 22.4155 46.32 22.4155 45.96V40.2C22.4155 39.84 22.5955 39.66 22.9555 39.66C23.3155 39.66 23.4955 39.84 23.4955 40.2V42C23.4955 42.36 23.6755 42.54 24.0355 42.54H32.4955C32.8555 42.54 33.0355 42.36 33.0355 42V31.92C33.0355 31.56 32.8555 31.38 32.4955 31.38H29.6155C29.2555 31.38 29.0755 31.2 29.0755 30.84C29.0755 30.48 29.2555 30.3 29.6155 30.3H37.1755C37.5355 30.3 37.7155 30.48 37.7155 30.84C37.7155 31.2 37.5355 31.38 37.1755 31.38Z" fill="#008481"/>
</g>
</g>
</g>
<defs>
<filter id="filter0_i_433_212" x="81.6135" y="30.375" width="62.5275" height="34" filterUnits="userSpaceOnUse" color-interpolation-filters="sRGB">
<feFlood flood-opacity="0" result="BackgroundImageFix"/>
<feBlend mode="normal" in="SourceGraphic" in2="BackgroundImageFix" result="shape"/>
<feColorMatrix in="SourceAlpha" type="matrix" values="0 0 0 0 0 0 0 0 0 0 0 0 0 0 0 0 0 0 127 0" result="hardAlpha"/>
<feOffset dy="4"/>
<feGaussianBlur stdDeviation="2"/>
<feComposite in2="hardAlpha" operator="arithmetic" k2="-1" k3="1"/>
<feColorMatrix type="matrix" values="0 0 0 0 0 0 0 0 0 0 0 0 0 0 0 0 0 0 0.25 0"/>
<feBlend mode="normal" in2="shape" result="effect1_innerShadow_433_212"/>
</filter>
<filter id="filter1_i_433_212" x="3" y="6.75" width="72" height="76" filterUnits="userSpaceOnUse" color-interpolation-filters="sRGB">
<feFlood flood-opacity="0" result="BackgroundImageFix"/>
<feBlend mode="normal" in="SourceGraphic" in2="BackgroundImageFix" result="shape"/>
<feColorMatrix in="SourceAlpha" type="matrix" values="0 0 0 0 0 0 0 0 0 0 0 0 0 0 0 0 0 0 127 0" result="hardAlpha"/>
<feOffset dy="4"/>
<feGaussianBlur stdDeviation="2"/>
<feComposite in2="hardAlpha" operator="arithmetic" k2="-1" k3="1"/>
<feColorMatrix type="matrix" values="0 0 0 0 0 0 0 0 0 0 0 0 0 0 0 0 0 0 0.25 0"/>
<feBlend mode="normal" in2="shape" result="effect1_innerShadow_433_212"/>
</filter>
<filter id="filter2_d_433_212" x="8.51233" y="14.2303" width="13.9612" height="13.8141" filterUnits="userSpaceOnUse" color-interpolation-filters="sRGB">
<feFlood flood-opacity="0" result="BackgroundImageFix"/>
<feColorMatrix in="SourceAlpha" type="matrix" values="0 0 0 0 0 0 0 0 0 0 0 0 0 0 0 0 0 0 127 0" result="hardAlpha"/>
<feOffset dy="4"/>
<feGaussianBlur stdDeviation="2"/>
<feComposite in2="hardAlpha" operator="out"/>
<feColorMatrix type="matrix" values="0 0 0 0 0 0 0 0 0 0 0 0 0 0 0 0 0 0 0.25 0"/>
<feBlend mode="normal" in2="BackgroundImageFix" result="effect1_dropShadow_433_212"/>
<feBlend mode="normal" in="SourceGraphic" in2="effect1_dropShadow_433_212" result="shape"/>
</filter>
<filter id="filter3_d_433_212" x="55.3503" y="65.4167" width="14.7748" height="14.6223" filterUnits="userSpaceOnUse" color-interpolation-filters="sRGB">
<feFlood flood-opacity="0" result="BackgroundImageFix"/>
<feColorMatrix in="SourceAlpha" type="matrix" values="0 0 0 0 0 0 0 0 0 0 0 0 0 0 0 0 0 0 127 0" result="hardAlpha"/>
<feOffset dy="4"/>
<feGaussianBlur stdDeviation="2"/>
<feComposite in2="hardAlpha" operator="out"/>
<feColorMatrix type="matrix" values="0 0 0 0 0 0 0 0 0 0 0 0 0 0 0 0 0 0 0.25 0"/>
<feBlend mode="normal" in2="BackgroundImageFix" result="effect1_dropShadow_433_212"/>
<feBlend mode="normal" in="SourceGraphic" in2="effect1_dropShadow_433_212" result="shape"/>
</filter>
<filter id="filter4_i_433_212" x="40.0829" y="30.3" width="18.18" height="29.2" filterUnits="userSpaceOnUse" color-interpolation-filters="sRGB">
<feFlood flood-opacity="0" result="BackgroundImageFix"/>
<feBlend mode="normal" in="SourceGraphic" in2="BackgroundImageFix" result="shape"/>
<feColorMatrix in="SourceAlpha" type="matrix" values="0 0 0 0 0 0 0 0 0 0 0 0 0 0 0 0 0 0 127 0" result="hardAlpha"/>
<feOffset dy="4"/>
<feGaussianBlur stdDeviation="2"/>
<feComposite in2="hardAlpha" operator="arithmetic" k2="-1" k3="1"/>
<feColorMatrix type="matrix" values="0 0 0 0 0 0 0 0 0 0 0 0 0 0 0 0 0 0 0.25 0"/>
<feBlend mode="normal" in2="shape" result="effect1_innerShadow_433_212"/>
</filter>
<filter id="filter5_i_433_212" x="19.5355" y="30.3" width="18.18" height="29.2" filterUnits="userSpaceOnUse" color-interpolation-filters="sRGB">
<feFlood flood-opacity="0" result="BackgroundImageFix"/>
<feBlend mode="normal" in="SourceGraphic" in2="BackgroundImageFix" result="shape"/>
<feColorMatrix in="SourceAlpha" type="matrix" values="0 0 0 0 0 0 0 0 0 0 0 0 0 0 0 0 0 0 127 0" result="hardAlpha"/>
<feOffset dy="4"/>
<feGaussianBlur stdDeviation="2"/>
<feComposite in2="hardAlpha" operator="arithmetic" k2="-1" k3="1"/>
<feColorMatrix type="matrix" values="0 0 0 0 0 0 0 0 0 0 0 0 0 0 0 0 0 0 0.25 0"/>
<feBlend mode="normal" in2="shape" result="effect1_innerShadow_433_212"/>
</filter>
<clipPath id="clip0_433_212">
<rect width="150" height="82.5" fill="white"/>
</clipPath>
</defs>
</svg>
