<svg width="48" height="48" viewBox="0 0 48 48" fill="none" xmlns="http://www.w3.org/2000/svg">
<path d="M8 11C7.44772 11 7 11.4477 7 12C7 12.5523 7.44772 13 8 13V11ZM40 13C40.5523 13 41 12.5523 41 12C41 11.4477 40.5523 11 40 11V13ZM8 23C7.44772 23 7 23.4477 7 24C7 24.5523 7.44772 25 8 25V23ZM40 25C40.5523 25 41 24.5523 41 24C41 23.4477 40.5523 23 40 23V25ZM8 35C7.44772 35 7 35.4477 7 36C7 36.5523 7.44772 37 8 37V35ZM40 37C40.5523 37 41 36.5523 41 36C41 35.4477 40.5523 35 40 35V37ZM8 13H40V11H8V13ZM8 25H40V23H8V25ZM8 37H40V35H8V37Z" fill="#3C3C3C"/>
</svg>
